# xmcd CD database file
#
# Track frame offsets:
#	150
#	21736
#	41055
#
# Disc length: 831 seconds
#
# Revision: 1
# Processed by: cddbd v1.5.2PL0 Copyright (c) Steve Scherf et al.
# Submitted via: CDex 1.70beta2
#
DISCID=25033d03
DTITLE=BON-BON BLANCO - ユラユラ揺れる（初回限定盤）
DYEAR=2006
DGENRE=JPop
TTITLE0=ユラユラ揺れる
TTITLE1=100mileの南風にのって
TTITLE2=ユラユラ揺れる -instrumental-
EXTD=YEAR: 2006
EXTT0=
EXTT1=
EXTT2=
PLAYORDER=
